M48
; DRILL file {KiCad (5.1.9)-1} date 05/16/21 18:27:11
; FORMAT={-:-/ absolute / inch / decimal}
; #@! TF.CreationDate,2021-05-16T18:27:11+02:00
; #@! TF.GenerationSoftware,Kicad,Pcbnew,(5.1.9)-1
; #@! TF.FileFunction,Plated,1,4,PTH
FMAT,2
INCH
T1C0.0118
T2C0.0157
T3C0.0177
T4C0.0354
T5C0.0394
T6C0.0433
%
G90
G05
T1
X4.4764Y-3.1142
X4.5906Y-3.189
X4.5906Y-3.2205
X4.5906Y-3.252
X4.6457Y-2.7047
X4.6929Y-3.1142
X4.7559Y-4.2205
X4.7953Y-2.7047
X4.9094Y-3.1142
X4.937Y-3.6098
X4.937Y-4.1319
X5.0Y-4.8539
X5.0236Y-3.189
X5.0236Y-3.2205
X5.0236Y-3.252
X5.0512Y-4.3031
X5.0827Y-4.8504
X5.0906Y-5.0787
X5.0945Y-4.2874
X5.0945Y-4.3268
X5.1181Y-4.6142
X5.1181Y-4.6457
X5.1181Y-4.7953
X5.1184Y-4.4646
X5.126Y-3.1142
X5.126Y-4.3031
X5.1457Y-5.0787
X5.1575Y-4.3268
X5.1772Y-2.5472
X5.1929Y-4.8937
X5.248Y-4.5039
X5.2638Y-2.2402
X5.2638Y-2.4449
X5.2795Y-4.5118
X5.2953Y-2.2402
X5.2953Y-2.4449
X5.3071Y-3.3858
X5.3189Y-3.2538
X5.3189Y-3.2835
X5.3189Y-3.4173
X5.3189Y-3.4469
X5.3189Y-3.4766
X5.3307Y-2.8465
X5.3307Y-2.878
X5.3346Y-2.1102
X5.3543Y-3.5984
X5.3543Y-4.0354
X5.3622Y-2.8465
X5.3622Y-2.878
X5.378Y-4.1417
X5.3819Y-2.126
X5.3937Y-2.8465
X5.3937Y-2.878
X5.4016Y-4.1181
X5.4055Y-3.5748
X5.4213Y-3.248
X5.4252Y-2.8465
X5.4252Y-2.878
X5.4252Y-4.1417
X5.4331Y-3.4094
X5.4331Y-3.4606
X5.4331Y-3.5118
X5.4567Y-2.8465
X5.4567Y-2.878
X5.4606Y-2.0118
X5.4705Y-2.9567
X5.4705Y-2.9882
X5.4705Y-3.0197
X5.4705Y-3.0512
X5.4705Y-3.0827
X5.4882Y-2.8465
X5.4882Y-2.878
X5.5Y-2.9567
X5.5Y-3.0827
X5.5197Y-2.8465
X5.5197Y-2.878
X5.5295Y-2.9567
X5.5295Y-3.0827
X5.5433Y-1.9488
X5.5512Y-2.8465
X5.5512Y-2.878
X5.5551Y-2.1299
X5.5591Y-2.9567
X5.5591Y-2.9882
X5.5591Y-3.0197
X5.5591Y-3.0512
X5.5591Y-3.0827
X5.5827Y-2.8465
X5.5827Y-2.878
X5.5906Y-3.9961
X5.5906Y-4.3386
X5.6142Y-2.4646
X5.6142Y-2.8465
X5.6142Y-2.878
X5.622Y-2.2205
X5.6457Y-2.8465
X5.6457Y-2.878
X5.6482Y-3.3661
X5.6654Y-2.3661
X5.6654Y-2.3976
X5.6772Y-2.8465
X5.6772Y-2.878
X5.6969Y-2.1732
X5.7087Y-2.8465
X5.7087Y-2.878
X5.7283Y-2.5394
X5.7402Y-2.8465
X5.7402Y-2.878
X5.7402Y-4.3481
X5.7539Y-2.9567
X5.7539Y-2.9882
X5.7539Y-3.0197
X5.7539Y-3.0512
X5.7539Y-3.0827
X5.7598Y-2.1339
X5.7717Y-2.8465
X5.7717Y-2.878
X5.7792Y-4.5433
X5.7835Y-2.9567
X5.7835Y-3.0827
X5.7835Y-3.4291
X5.7874Y-2.2402
X5.7874Y-2.2717
X5.7913Y-2.1339
X5.8031Y-2.8465
X5.8031Y-2.878
X5.813Y-2.9567
X5.813Y-3.0827
X5.815Y-2.0591
X5.8228Y-1.9646
X5.8307Y-3.4803
X5.8307Y-4.5669
X5.8346Y-2.5591
X5.8425Y-2.9567
X5.8425Y-2.9882
X5.8425Y-3.0197
X5.8425Y-3.0512
X5.8425Y-3.0827
X5.8445Y-2.2244
X5.8482Y-4.0285
X5.8622Y-3.4803
X5.8642Y-2.5512
X5.8661Y-2.0748
X5.8701Y-2.2854
X5.874Y-2.3622
X5.8802Y-4.0967
X5.8858Y-2.313
X5.8858Y-2.4291
X5.8937Y-2.5591
X5.8996Y-2.0748
X5.9128Y-4.71
X5.9173Y-1.9646
X5.9252Y-2.0591
X5.9291Y-2.4252
X5.9409Y-2.9882
X5.9429Y-2.2244
X5.9567Y-2.5512
X5.9764Y-2.3858
X5.9803Y-3.6693
X5.9882Y-2.5512
X5.9986Y-4.2039
X6.0208Y-4.2261
X6.0236Y-3.5472
X6.0315Y-3.689
X6.032Y-4.0816
X6.0431Y-4.2484
X6.0472Y-3.5236
X6.0542Y-4.0591
X6.0598Y-3.8948
X6.063Y-2.7402
X6.063Y-2.7874
X6.0751Y-3.7871
X6.0787Y-3.5236
X6.0821Y-3.8726
X6.0827Y-2.2283
X6.0827Y-2.2598
X6.0866Y-4.1772
X6.0918Y-4.0382
X6.0945Y-2.7402
X6.0945Y-2.7874
X6.1016Y-4.3069
X6.1024Y-3.811
X6.1043Y-3.8503
X6.1063Y-4.8189
X6.1141Y-4.0159
X6.1181Y-4.0984
X6.1181Y-4.2047
X6.1252Y-4.3305
X6.126Y-2.7402
X6.126Y-2.7874
X6.1266Y-4.5129
X6.1339Y-4.5433
X6.1364Y-3.9937
X6.1475Y-4.3528
X6.1575Y-2.7402
X6.1575Y-2.7874
X6.16Y-3.4803
X6.1614Y-2.4016
X6.1614Y-2.4331
X6.1628Y-3.803
X6.1698Y-4.3751
X6.1814Y-4.0627
X6.1851Y-3.928
X6.1851Y-3.7807
X6.189Y-2.7402
X6.189Y-2.7874
X6.192Y-4.3973
X6.2004Y-4.5699
X6.2028Y-2.9567
X6.2028Y-2.9882
X6.2028Y-3.0197
X6.2028Y-3.0512
X6.2028Y-3.0827
X6.2073Y-3.7584
X6.2129Y-4.446
X6.2205Y-2.7402
X6.2205Y-2.7874
X6.2227Y-4.5922
X6.2323Y-2.9567
X6.2323Y-3.0827
X6.2351Y-4.4683
X6.2441Y-2.3386
X6.252Y-2.7402
X6.252Y-2.7874
X6.26Y-3.4803
X6.2618Y-2.9567
X6.2618Y-3.0827
X6.2677Y-4.2087
X6.2795Y-2.0157
X6.2795Y-2.0472
X6.2795Y-2.1142
X6.2795Y-2.1457
X6.2835Y-2.7402
X6.2835Y-2.7874
X6.2913Y-2.9567
X6.2913Y-2.9882
X6.2913Y-3.0197
X6.2913Y-3.0512
X6.2913Y-3.0827
X6.2992Y-4.3819
X6.315Y-2.7402
X6.315Y-2.7874
X6.3396Y-3.8656
X6.3465Y-2.7402
X6.3465Y-2.7874
X6.3619Y-3.8879
X6.3758Y-3.7543
X6.378Y-2.7402
X6.378Y-2.7874
X6.3841Y-3.9101
X6.3898Y-3.4567
X6.3976Y-3.4882
X6.4094Y-2.7402
X6.4094Y-2.7874
X6.4134Y-2.2638
X6.4134Y-2.4291
X6.4252Y-3.4134
X6.4409Y-2.7402
X6.4409Y-2.7874
X6.4468Y-3.7195
X6.4508Y-2.4291
X6.4567Y-3.4016
X6.4607Y-3.828
X6.4685Y-4.0197
X6.4724Y-2.7402
X6.4724Y-2.7874
X6.4829Y-3.8503
X6.4843Y-2.0157
X6.4843Y-2.0472
X6.4862Y-2.9567
X6.4862Y-2.9882
X6.4862Y-3.0197
X6.4862Y-3.0512
X6.4862Y-3.0827
X6.4882Y-4.3346
X6.5Y-4.1811
X6.501Y-4.4669
X6.5039Y-2.7402
X6.5039Y-2.7874
X6.5157Y-2.9567
X6.5157Y-3.0827
X6.5197Y-3.4016
X6.5197Y-4.1378
X6.5233Y-4.4447
X6.5247Y-3.892
X6.5289Y-3.8239
X6.5354Y-2.7402
X6.5354Y-2.7874
X6.5453Y-2.9567
X6.5453Y-3.0827
X6.547Y-3.9143
X6.5512Y-3.8461
X6.5512Y-3.4134
X6.5748Y-2.9567
X6.5748Y-2.9882
X6.5748Y-3.0197
X6.5748Y-3.0512
X6.5748Y-3.0827
X6.5787Y-3.4882
X6.5866Y-3.4567
X6.6161Y-4.1988
X6.6179Y-3.8227
X6.6256Y-3.9248
X6.6263Y-4.3417
X6.6339Y-4.3858
X6.6362Y-3.8646
X6.6457Y-2.4961
X6.6457Y-2.5276
X6.6457Y-3.7598
X6.6486Y-4.3194
X6.6496Y-4.4134
X6.6654Y-4.4409
X6.6723Y-4.2957
X6.6732Y-2.0591
X6.6811Y-1.9646
X6.6811Y-4.4685
X6.682Y-4.0605
X6.6852Y-3.9293
X6.6969Y-3.563
X6.7008Y-5.2047
X6.7043Y-4.0828
X6.7323Y-3.5827
X6.7362Y-2.4803
X6.7362Y-2.5118
X6.7362Y-2.5433
X6.7756Y-1.9646
X6.7795Y-4.186
X6.7835Y-2.0591
X6.7892Y-4.4126
X6.7953Y-2.6614
X6.7953Y-2.689
X6.7992Y-5.2008
X6.8268Y-2.4961
X6.8268Y-2.5276
X6.8268Y-2.6614
X6.8268Y-2.689
X6.8333Y-3.4803
X6.8346Y-3.9094
X6.8393Y-4.4628
X6.8583Y-2.6614
X6.8583Y-2.689
X6.8898Y-2.6614
X6.8898Y-2.689
X6.9213Y-2.6614
X6.9213Y-2.689
X6.9331Y-2.063
X6.9333Y-3.4803
X6.935Y-2.9567
X6.935Y-2.9882
X6.935Y-3.0197
X6.935Y-3.0512
X6.935Y-3.0827
X6.9528Y-2.6614
X6.9528Y-2.689
X6.9646Y-2.9567
X6.9646Y-3.0827
X6.9724Y-4.8189
X6.9764Y-4.937
X6.9843Y-2.6614
X6.9843Y-2.689
X6.9941Y-2.9567
X6.9941Y-3.0827
X6.9961Y-4.8976
X6.9961Y-5.0472
X7.0118Y-1.9016
X7.0157Y-2.6614
X7.0157Y-2.689
X7.0197Y-4.9764
X7.0236Y-2.9567
X7.0236Y-2.9882
X7.0236Y-3.0197
X7.0236Y-3.0512
X7.0236Y-3.0827
X7.0472Y-2.6614
X7.0472Y-2.689
X7.0512Y-2.122
X7.0561Y-4.4449
X7.0748Y-4.2205
X7.0787Y-2.6614
X7.0787Y-2.689
X7.0817Y-4.5157
X7.0945Y-2.2402
X7.0945Y-2.2717
X7.1024Y-5.0669
X7.1063Y-2.3268
X7.1063Y-2.3642
X7.1063Y-2.4016
X7.1063Y-2.439
X7.1063Y-2.4764
X7.1073Y-4.4449
X7.1102Y-2.6614
X7.1102Y-2.689
X7.1329Y-4.5157
X7.1339Y-5.0669
X7.1417Y-2.6614
X7.1417Y-2.689
X7.1654Y-3.2165
X7.1654Y-3.2677
X7.1654Y-3.3189
X7.1654Y-5.0669
X7.1693Y-4.063
X7.1732Y-2.6614
X7.1732Y-2.689
X7.1772Y-3.4843
X7.185Y-4.4409
X7.1929Y-4.3307
X7.1929Y-4.6299
X7.2047Y-2.6614
X7.2047Y-2.689
X7.2087Y-2.5354
X7.2185Y-2.9567
X7.2185Y-2.9882
X7.2185Y-3.0197
X7.2185Y-3.0512
X7.2185Y-3.0827
X7.2333Y-4.4449
X7.2362Y-2.6614
X7.2362Y-2.689
X7.248Y-2.9567
X7.248Y-3.0827
X7.2589Y-4.5157
X7.2677Y-2.6614
X7.2677Y-2.689
X7.2776Y-2.9567
X7.2776Y-3.0827
X7.2795Y-3.252
X7.2795Y-3.2835
X7.2795Y-3.315
X7.2795Y-3.4449
X7.2795Y-3.4764
X7.2844Y-4.4449
X7.2913Y-2.3504
X7.2913Y-2.3819
X7.2913Y-3.3425
X7.3031Y-2.0984
X7.3031Y-2.3031
X7.3071Y-2.9567
X7.3071Y-2.9882
X7.3071Y-3.0197
X7.3071Y-3.0512
X7.3071Y-3.0827
X7.31Y-4.5157
X7.3189Y-4.0118
X7.3228Y-4.8583
X7.3228Y-4.937
X7.3228Y-5.0157
X7.3307Y-4.8189
X7.3307Y-4.8976
X7.3307Y-4.9764
X7.3346Y-2.0984
X7.3346Y-2.3031
X7.3583Y-4.3976
X7.3583Y-4.563
X7.3661Y-4.7717
X7.374Y-3.0157
X7.4055Y-3.189
X7.4055Y-3.2205
X7.4055Y-3.252
X7.4055Y-5.1339
X7.4213Y-2.5433
X7.4685Y-3.748
X7.4685Y-3.811
X7.4685Y-3.874
X7.4685Y-3.937
X7.5276Y-3.1142
X7.6614Y-3.8169
X7.7441Y-3.1142
X7.7717Y-5.1567
X7.7913Y-3.189
X7.7913Y-3.2205
X7.7913Y-3.252
X7.8031Y-2.7047
X7.8386Y-3.1378
X7.9528Y-2.7047
X7.9606Y-3.1142
X8.1772Y-3.1142
T2
X5.7323Y-3.3612
X5.7333Y-3.2923
X5.7657Y-3.2923
X5.7657Y-3.3612
X5.9016Y-3.3071
X5.9016Y-3.3465
X6.2431Y-3.2923
X6.2451Y-3.3612
X6.2766Y-3.2923
X6.2785Y-3.3612
X6.6969Y-3.3071
X6.6969Y-3.3465
X6.9183Y-3.2884
X6.9183Y-3.3573
X6.9518Y-3.2884
X6.9518Y-3.3573
T4
X5.6492Y-5.2362
X5.7492Y-5.2362
X5.8492Y-5.2362
X5.9492Y-5.2362
X6.0492Y-5.2362
X6.1492Y-1.9094
X6.1492Y-5.2362
X6.2492Y-1.9094
X6.2492Y-5.2362
X6.3492Y-1.9094
X6.3492Y-5.2362
X6.4492Y-1.9094
X6.4492Y-5.2362
X6.5492Y-5.2362
X6.6492Y-5.2362
X6.7492Y-5.2362
X6.8492Y-5.2362
X6.9492Y-5.2362
X7.4685Y-4.2126
X7.4685Y-4.2913
X7.4685Y-4.3701
X7.7441Y-4.6457
X7.8228Y-4.6457
X7.9016Y-4.6457
T5
X4.813Y-2.9035
X5.0098Y-2.9035
X7.5886Y-2.9035
X7.5984Y-3.4488
X7.5984Y-3.5276
X7.5984Y-3.6063
X7.5984Y-3.685
X7.5984Y-3.7638
X7.5984Y-4.8189
X7.5984Y-4.8976
X7.5984Y-4.9764
X7.5984Y-5.0551
X7.5984Y-5.1339
X7.7854Y-2.9035
T6
X4.4803Y-2.4488
X4.4803Y-2.5866
X4.4803Y-2.7244
X4.4803Y-2.8622
X4.4803Y-3.0
X4.7303Y-2.5118
X4.8681Y-2.5118
X7.7303Y-2.5118
X7.8681Y-2.5118
X8.1181Y-2.4488
X8.1181Y-2.5866
X8.1181Y-2.7244
X8.1181Y-2.8622
X8.1181Y-3.0
T3
G00X5.7293Y-1.9232
M15
G01X5.7293Y-1.8917
M16
G05
G00X6.0108Y-1.9232
M15
G01X6.0108Y-1.8917
M16
G05
G00X6.5876Y-1.9232
M15
G01X6.5876Y-1.8917
M16
G05
G00X6.8691Y-1.9232
M15
G01X6.8691Y-1.8917
M16
G05
T0
M30
