M48
; DRILL file {KiCad (5.1.9)-1} date 05/16/21 18:27:11
; FORMAT={-:-/ absolute / inch / decimal}
; #@! TF.CreationDate,2021-05-16T18:27:11+02:00
; #@! TF.GenerationSoftware,Kicad,Pcbnew,(5.1.9)-1
; #@! TF.FileFunction,NonPlated,1,4,NPTH
FMAT,2
INCH
T1C0.0197
T2C0.0276
T3C0.0295
T4C0.0413
T5C0.0630
T6C0.0827
T7C0.1181
%
G90
G05
T1
X4.3484Y-2.3504
X4.3504Y-1.7815
X4.378Y-2.3504
X4.3799Y-1.7815
X4.4075Y-2.3504
X4.4094Y-1.7815
X5.0591Y-1.7815
X5.0886Y-1.7815
X5.1181Y-1.7815
X6.2697Y-1.7815
X6.2992Y-1.7815
X6.3287Y-1.7815
X7.4803Y-1.7815
X7.5098Y-1.7815
X7.5394Y-1.7815
X8.189Y-1.7815
X8.189Y-2.3524
X8.2185Y-1.7815
X8.2185Y-2.3524
X8.248Y-1.7815
X8.248Y-2.3524
T3
X4.8245Y-4.2384
T4
X4.7188Y-4.3442
T5
X7.5866Y-4.5276
X8.0591Y-4.0551
T6
X4.7953Y-3.685
T7
X5.3307Y-1.9055
X5.3307Y-5.2008
X7.2677Y-1.9055
X7.2677Y-5.2008
T2
G00X8.002Y-3.4094
M15
G01X7.9823Y-3.4094
M16
G05
G00X8.002Y-3.8031
M15
G01X7.9823Y-3.8031
M16
G05
G00X8.002Y-4.7795
M15
G01X7.9823Y-4.7795
M16
G05
G00X8.002Y-5.1732
M15
G01X7.9823Y-5.1732
M16
G05
T5
G00X4.9646Y-3.685
M15
G01X4.9803Y-3.685
M16
G05
T0
M30
