%TF.GenerationSoftware,KiCad,Pcbnew,(5.1.9)-1*%
%TF.CreationDate,2021-05-16T18:27:06+02:00*%
%TF.ProjectId,STM32-Evalboard,53544d33-322d-4457-9661-6c626f617264,rev?*%
%TF.SameCoordinates,Original*%
%TF.FileFunction,Profile,NP*%
%FSLAX46Y46*%
G04 Gerber Fmt 4.6, Leading zero omitted, Abs format (unit mm)*
G04 Created by KiCad (PCBNEW (5.1.9)-1) date 2021-05-16 18:27:06*
%MOMM*%
%LPD*%
G01*
G04 APERTURE LIST*
%TA.AperFunction,Profile*%
%ADD10C,0.050000*%
%TD*%
G04 APERTURE END LIST*
D10*
X162000000Y-45500000D02*
X165700000Y-45500000D01*
X168000000Y-45000000D02*
X173800000Y-45000000D01*
X174992893Y-43792893D02*
G75*
G02*
X175700000Y-43500000I707107J-707107D01*
G01*
X173800000Y-45000000D02*
X174992893Y-43792893D01*
X166807107Y-43792893D02*
G75*
G03*
X166100000Y-43500000I-707107J-707107D01*
G01*
X166807107Y-43792893D02*
X168000000Y-45000000D01*
X152000000Y-45000000D02*
X153192893Y-43792893D01*
X146200000Y-45000000D02*
X152000000Y-45000000D01*
X145007107Y-43792893D02*
X146200000Y-45000000D01*
X153192893Y-43792893D02*
G75*
G02*
X153900000Y-43500000I707107J-707107D01*
G01*
X145007107Y-43792893D02*
G75*
G03*
X144300000Y-43500000I-707107J-707107D01*
G01*
X131500000Y-43500000D02*
X144300000Y-43500000D01*
X206750000Y-45500000D02*
X192750000Y-45500000D01*
X192750000Y-43500000D02*
X206750000Y-43500000D01*
X188500000Y-43500000D02*
G75*
G02*
X189500000Y-44500000I0J-1000000D01*
G01*
X130500000Y-44500000D02*
G75*
G02*
X131500000Y-43500000I1000000J0D01*
G01*
X130500000Y-58000000D02*
X130500000Y-44500000D01*
X113250000Y-58000000D02*
X130500000Y-58000000D01*
X113250000Y-45500000D02*
X127250000Y-45500000D01*
X127250000Y-43500000D02*
X113250000Y-43500000D01*
X158000000Y-43500000D02*
X153900000Y-43500000D01*
X162000000Y-43500000D02*
X166100000Y-43500000D01*
X188500000Y-43500000D02*
X175700000Y-43500000D01*
X189500000Y-58000000D02*
X189500000Y-44500000D01*
X206750000Y-58000000D02*
X189500000Y-58000000D01*
X206750000Y-60000000D02*
G75*
G03*
X206750000Y-58000000I0J1000000D01*
G01*
X206750000Y-45500000D02*
G75*
G03*
X206750000Y-43500000I0J1000000D01*
G01*
X192750000Y-43500000D02*
G75*
G03*
X192750000Y-45500000I0J-1000000D01*
G01*
X158000000Y-45500000D02*
G75*
G03*
X158000000Y-43500000I0J1000000D01*
G01*
X162000000Y-43500000D02*
G75*
G03*
X162000000Y-45500000I0J-1000000D01*
G01*
X127250000Y-45500000D02*
G75*
G03*
X127250000Y-43500000I0J1000000D01*
G01*
X113250000Y-43500000D02*
G75*
G03*
X113250000Y-45500000I0J-1000000D01*
G01*
X113250000Y-58000000D02*
G75*
G03*
X113250000Y-60000000I0J-1000000D01*
G01*
X174907107Y-46707107D02*
G75*
G02*
X174200000Y-47000000I-707107J707107D01*
G01*
X166892893Y-46707107D02*
G75*
G03*
X167600000Y-47000000I707107J707107D01*
G01*
X174907107Y-46707107D02*
X176100000Y-45500000D01*
X166892893Y-46707107D02*
X165700000Y-45500000D01*
X167600000Y-47000000D02*
X174200000Y-47000000D01*
X153107107Y-46707107D02*
G75*
G02*
X152400000Y-47000000I-707107J707107D01*
G01*
X188500000Y-60000000D02*
G75*
G02*
X187500000Y-59000000I0J1000000D01*
G01*
X145092893Y-46707107D02*
G75*
G03*
X145800000Y-47000000I707107J707107D01*
G01*
X132500000Y-59000000D02*
G75*
G02*
X131500000Y-60000000I-1000000J0D01*
G01*
X110000000Y-35000000D02*
X110000000Y-58000000D01*
X210000000Y-58000000D02*
X210000000Y-35000000D01*
X176100000Y-45500000D02*
X187500000Y-45500000D01*
X154300000Y-45500000D02*
X158000000Y-45500000D01*
X145092893Y-46707107D02*
X143900000Y-45500000D01*
X153107107Y-46707107D02*
X154300000Y-45500000D01*
X145800000Y-47000000D02*
X152400000Y-47000000D01*
X187500000Y-59000000D02*
X187500000Y-45500000D01*
X132500000Y-59000000D02*
X132500000Y-45500000D01*
X188500000Y-60000000D02*
X206750000Y-60000000D01*
X132500000Y-45500000D02*
X143900000Y-45500000D01*
X113250000Y-60000000D02*
X131500000Y-60000000D01*
X110000000Y-35000000D02*
X210000000Y-35000000D01*
X210000000Y-135000000D02*
X210000000Y-58000000D01*
X110000000Y-135000000D02*
X210000000Y-135000000D01*
X110000000Y-58000000D02*
X110000000Y-135000000D01*
M02*
