%TF.GenerationSoftware,KiCad,Pcbnew,(5.1.9)-1*%
%TF.CreationDate,2021-05-16T18:27:06+02:00*%
%TF.ProjectId,STM32-Evalboard,53544d33-322d-4457-9661-6c626f617264,rev?*%
%TF.SameCoordinates,Original*%
%TF.FileFunction,Soldermask,Bot*%
%TF.FilePolarity,Negative*%
%FSLAX46Y46*%
G04 Gerber Fmt 4.6, Leading zero omitted, Abs format (unit mm)*
G04 Created by KiCad (PCBNEW (5.1.9)-1) date 2021-05-16 18:27:06*
%MOMM*%
%LPD*%
G01*
G04 APERTURE LIST*
%ADD10C,0.010000*%
%ADD11C,0.500000*%
%ADD12C,0.200000*%
%ADD13C,0.100000*%
%ADD14C,0.750000*%
%ADD15C,1.050000*%
%ADD16C,1.800000*%
%ADD17C,1.600000*%
%ADD18R,1.800000X1.800000*%
%ADD19C,2.200000*%
%ADD20C,2.000000*%
%ADD21R,2.000000X2.000000*%
%ADD22O,1.050000X1.900000*%
%ADD23O,1.200000X0.700000*%
%ADD24O,2.000000X1.500000*%
%ADD25C,3.000000*%
%ADD26C,2.100000*%
%ADD27O,2.000000X1.600000*%
G04 APERTURE END LIST*
D10*
%TO.C,J205*%
G36*
X125082990Y-105521020D02*
G01*
X125082990Y-104379010D01*
X123070980Y-104379010D01*
X123070980Y-105521020D01*
X125082990Y-105521020D01*
G37*
X125082990Y-105521020D02*
X125082990Y-104379010D01*
X123070980Y-104379010D01*
X123070980Y-105521020D01*
X125082990Y-105521020D01*
G36*
X125082990Y-108061020D02*
G01*
X125082990Y-106919010D01*
X123070980Y-106919010D01*
X123070980Y-108061020D01*
X125082990Y-108061020D01*
G37*
X125082990Y-108061020D02*
X125082990Y-106919010D01*
X123070980Y-106919010D01*
X123070980Y-108061020D01*
X125082990Y-108061020D01*
G36*
X125082990Y-110601017D02*
G01*
X125082990Y-109459010D01*
X123070980Y-109459010D01*
X123070980Y-110601017D01*
X125082990Y-110601017D01*
G37*
X125082990Y-110601017D02*
X125082990Y-109459010D01*
X123070980Y-109459010D01*
X123070980Y-110601017D01*
X125082990Y-110601017D01*
G36*
X125082990Y-113141020D02*
G01*
X125082990Y-111999008D01*
X123070980Y-111999008D01*
X123070980Y-113141020D01*
X125082990Y-113141020D01*
G37*
X125082990Y-113141020D02*
X125082990Y-111999008D01*
X123070980Y-111999008D01*
X123070980Y-113141020D01*
X125082990Y-113141020D01*
G36*
X125082990Y-115681020D02*
G01*
X125082990Y-114539010D01*
X123070980Y-114539010D01*
X123070980Y-115681020D01*
X125082990Y-115681020D01*
G37*
X125082990Y-115681020D02*
X125082990Y-114539010D01*
X123070980Y-114539010D01*
X123070980Y-115681020D01*
X125082990Y-115681020D01*
G36*
X125082990Y-118221020D02*
G01*
X125082990Y-117079010D01*
X123070980Y-117079010D01*
X123070980Y-118221020D01*
X125082990Y-118221020D01*
G37*
X125082990Y-118221020D02*
X125082990Y-117079010D01*
X123070980Y-117079010D01*
X123070980Y-118221020D01*
X125082990Y-118221020D01*
%TO.C,J402*%
G36*
X194917010Y-96378980D02*
G01*
X194917010Y-97520990D01*
X196929020Y-97520990D01*
X196929020Y-96378980D01*
X194917010Y-96378980D01*
G37*
X194917010Y-96378980D02*
X194917010Y-97520990D01*
X196929020Y-97520990D01*
X196929020Y-96378980D01*
X194917010Y-96378980D01*
G36*
X194917010Y-93838980D02*
G01*
X194917010Y-94980990D01*
X196929020Y-94980990D01*
X196929020Y-93838980D01*
X194917010Y-93838980D01*
G37*
X194917010Y-93838980D02*
X194917010Y-94980990D01*
X196929020Y-94980990D01*
X196929020Y-93838980D01*
X194917010Y-93838980D01*
G36*
X194917010Y-91298983D02*
G01*
X194917010Y-92440990D01*
X196929020Y-92440990D01*
X196929020Y-91298983D01*
X194917010Y-91298983D01*
G37*
X194917010Y-91298983D02*
X194917010Y-92440990D01*
X196929020Y-92440990D01*
X196929020Y-91298983D01*
X194917010Y-91298983D01*
G36*
X194917010Y-88758980D02*
G01*
X194917010Y-89900992D01*
X196929020Y-89900992D01*
X196929020Y-88758980D01*
X194917010Y-88758980D01*
G37*
X194917010Y-88758980D02*
X194917010Y-89900992D01*
X196929020Y-89900992D01*
X196929020Y-88758980D01*
X194917010Y-88758980D01*
G36*
X194917010Y-86218980D02*
G01*
X194917010Y-87360990D01*
X196929020Y-87360990D01*
X196929020Y-86218980D01*
X194917010Y-86218980D01*
G37*
X194917010Y-86218980D02*
X194917010Y-87360990D01*
X196929020Y-87360990D01*
X196929020Y-86218980D01*
X194917010Y-86218980D01*
G36*
X194917010Y-83678980D02*
G01*
X194917010Y-84820990D01*
X196929020Y-84820990D01*
X196929020Y-83678980D01*
X194917010Y-83678980D01*
G37*
X194917010Y-83678980D02*
X194917010Y-84820990D01*
X196929020Y-84820990D01*
X196929020Y-83678980D01*
X194917010Y-83678980D01*
%TO.C,J401*%
G36*
X194917010Y-114678980D02*
G01*
X194917010Y-115820990D01*
X196929020Y-115820990D01*
X196929020Y-114678980D01*
X194917010Y-114678980D01*
G37*
X194917010Y-114678980D02*
X194917010Y-115820990D01*
X196929020Y-115820990D01*
X196929020Y-114678980D01*
X194917010Y-114678980D01*
G36*
X194917010Y-112138980D02*
G01*
X194917010Y-113280990D01*
X196929020Y-113280990D01*
X196929020Y-112138980D01*
X194917010Y-112138980D01*
G37*
X194917010Y-112138980D02*
X194917010Y-113280990D01*
X196929020Y-113280990D01*
X196929020Y-112138980D01*
X194917010Y-112138980D01*
G36*
X194917010Y-109598983D02*
G01*
X194917010Y-110740990D01*
X196929020Y-110740990D01*
X196929020Y-109598983D01*
X194917010Y-109598983D01*
G37*
X194917010Y-109598983D02*
X194917010Y-110740990D01*
X196929020Y-110740990D01*
X196929020Y-109598983D01*
X194917010Y-109598983D01*
G36*
X194917010Y-107058980D02*
G01*
X194917010Y-108200992D01*
X196929020Y-108200992D01*
X196929020Y-107058980D01*
X194917010Y-107058980D01*
G37*
X194917010Y-107058980D02*
X194917010Y-108200992D01*
X196929020Y-108200992D01*
X196929020Y-107058980D01*
X194917010Y-107058980D01*
G36*
X194917010Y-104518980D02*
G01*
X194917010Y-105660990D01*
X196929020Y-105660990D01*
X196929020Y-104518980D01*
X194917010Y-104518980D01*
G37*
X194917010Y-104518980D02*
X194917010Y-105660990D01*
X196929020Y-105660990D01*
X196929020Y-104518980D01*
X194917010Y-104518980D01*
G36*
X194917010Y-101978980D02*
G01*
X194917010Y-103120990D01*
X196929020Y-103120990D01*
X196929020Y-101978980D01*
X194917010Y-101978980D01*
G37*
X194917010Y-101978980D02*
X194917010Y-103120990D01*
X196929020Y-103120990D01*
X196929020Y-101978980D01*
X194917010Y-101978980D01*
%TO.C,J102*%
G36*
X152478980Y-60582990D02*
G01*
X153620990Y-60582990D01*
X153620990Y-58570980D01*
X152478980Y-58570980D01*
X152478980Y-60582990D01*
G37*
X152478980Y-60582990D02*
X153620990Y-60582990D01*
X153620990Y-58570980D01*
X152478980Y-58570980D01*
X152478980Y-60582990D01*
G36*
X149938980Y-60582990D02*
G01*
X151080990Y-60582990D01*
X151080990Y-58570980D01*
X149938980Y-58570980D01*
X149938980Y-60582990D01*
G37*
X149938980Y-60582990D02*
X151080990Y-60582990D01*
X151080990Y-58570980D01*
X149938980Y-58570980D01*
X149938980Y-60582990D01*
G36*
X147398983Y-60582990D02*
G01*
X148540990Y-60582990D01*
X148540990Y-58570980D01*
X147398983Y-58570980D01*
X147398983Y-60582990D01*
G37*
X147398983Y-60582990D02*
X148540990Y-60582990D01*
X148540990Y-58570980D01*
X147398983Y-58570980D01*
X147398983Y-60582990D01*
G36*
X144858980Y-60582990D02*
G01*
X146000992Y-60582990D01*
X146000992Y-58570980D01*
X144858980Y-58570980D01*
X144858980Y-60582990D01*
G37*
X144858980Y-60582990D02*
X146000992Y-60582990D01*
X146000992Y-58570980D01*
X144858980Y-58570980D01*
X144858980Y-60582990D01*
G36*
X142318980Y-60582990D02*
G01*
X143460990Y-60582990D01*
X143460990Y-58570980D01*
X142318980Y-58570980D01*
X142318980Y-60582990D01*
G37*
X142318980Y-60582990D02*
X143460990Y-60582990D01*
X143460990Y-58570980D01*
X142318980Y-58570980D01*
X142318980Y-60582990D01*
G36*
X139778980Y-60582990D02*
G01*
X140920990Y-60582990D01*
X140920990Y-58570980D01*
X139778980Y-58570980D01*
X139778980Y-60582990D01*
G37*
X139778980Y-60582990D02*
X140920990Y-60582990D01*
X140920990Y-58570980D01*
X139778980Y-58570980D01*
X139778980Y-60582990D01*
%TO.C,J207*%
G36*
X125082990Y-86611020D02*
G01*
X125082990Y-85469010D01*
X123070980Y-85469010D01*
X123070980Y-86611020D01*
X125082990Y-86611020D01*
G37*
X125082990Y-86611020D02*
X125082990Y-85469010D01*
X123070980Y-85469010D01*
X123070980Y-86611020D01*
X125082990Y-86611020D01*
G36*
X125082990Y-84071017D02*
G01*
X125082990Y-82929008D01*
X123070980Y-82929008D01*
X123070980Y-84071017D01*
X125082990Y-84071017D01*
G37*
X125082990Y-84071017D02*
X125082990Y-82929008D01*
X123070980Y-82929008D01*
X123070980Y-84071017D01*
X125082990Y-84071017D01*
G36*
X125082990Y-81531020D02*
G01*
X125082990Y-80389010D01*
X123070980Y-80389010D01*
X123070980Y-81531020D01*
X125082990Y-81531020D01*
G37*
X125082990Y-81531020D02*
X125082990Y-80389010D01*
X123070980Y-80389010D01*
X123070980Y-81531020D01*
X125082990Y-81531020D01*
%TO.C,J208*%
G36*
X194917010Y-130408980D02*
G01*
X194917010Y-131550990D01*
X196929020Y-131550990D01*
X196929020Y-130408980D01*
X194917010Y-130408980D01*
G37*
X194917010Y-130408980D02*
X194917010Y-131550990D01*
X196929020Y-131550990D01*
X196929020Y-130408980D01*
X194917010Y-130408980D01*
G36*
X194917010Y-127868980D02*
G01*
X194917010Y-129010990D01*
X196929020Y-129010990D01*
X196929020Y-127868980D01*
X194917010Y-127868980D01*
G37*
X194917010Y-127868980D02*
X194917010Y-129010990D01*
X196929020Y-129010990D01*
X196929020Y-127868980D01*
X194917010Y-127868980D01*
G36*
X194917010Y-125328983D02*
G01*
X194917010Y-126470992D01*
X196929020Y-126470992D01*
X196929020Y-125328983D01*
X194917010Y-125328983D01*
G37*
X194917010Y-125328983D02*
X194917010Y-126470992D01*
X196929020Y-126470992D01*
X196929020Y-125328983D01*
X194917010Y-125328983D01*
G36*
X194917010Y-122788980D02*
G01*
X194917010Y-123930990D01*
X196929020Y-123930990D01*
X196929020Y-122788980D01*
X194917010Y-122788980D01*
G37*
X194917010Y-122788980D02*
X194917010Y-123930990D01*
X196929020Y-123930990D01*
X196929020Y-122788980D01*
X194917010Y-122788980D01*
G36*
X194917010Y-120248980D02*
G01*
X194917010Y-121390990D01*
X196929020Y-121390990D01*
X196929020Y-120248980D01*
X194917010Y-120248980D01*
G37*
X194917010Y-120248980D02*
X194917010Y-121390990D01*
X196929020Y-121390990D01*
X196929020Y-120248980D01*
X194917010Y-120248980D01*
%TO.C,J204*%
G36*
X166378980Y-60582990D02*
G01*
X167520990Y-60582990D01*
X167520990Y-58570980D01*
X166378980Y-58570980D01*
X166378980Y-60582990D01*
G37*
X166378980Y-60582990D02*
X167520990Y-60582990D01*
X167520990Y-58570980D01*
X166378980Y-58570980D01*
X166378980Y-60582990D01*
G36*
X168918980Y-60582990D02*
G01*
X170060990Y-60582990D01*
X170060990Y-58570980D01*
X168918980Y-58570980D01*
X168918980Y-60582990D01*
G37*
X168918980Y-60582990D02*
X170060990Y-60582990D01*
X170060990Y-58570980D01*
X168918980Y-58570980D01*
X168918980Y-60582990D01*
G36*
X171458980Y-60582990D02*
G01*
X172600992Y-60582990D01*
X172600992Y-58570980D01*
X171458980Y-58570980D01*
X171458980Y-60582990D01*
G37*
X171458980Y-60582990D02*
X172600992Y-60582990D01*
X172600992Y-58570980D01*
X171458980Y-58570980D01*
X171458980Y-60582990D01*
G36*
X173998983Y-60582990D02*
G01*
X175140990Y-60582990D01*
X175140990Y-58570980D01*
X173998983Y-58570980D01*
X173998983Y-60582990D01*
G37*
X173998983Y-60582990D02*
X175140990Y-60582990D01*
X175140990Y-58570980D01*
X173998983Y-58570980D01*
X173998983Y-60582990D01*
G36*
X176538980Y-60582990D02*
G01*
X177680990Y-60582990D01*
X177680990Y-58570980D01*
X176538980Y-58570980D01*
X176538980Y-60582990D01*
G37*
X176538980Y-60582990D02*
X177680990Y-60582990D01*
X177680990Y-58570980D01*
X176538980Y-58570980D01*
X176538980Y-60582990D01*
G36*
X179078980Y-60582990D02*
G01*
X180220990Y-60582990D01*
X180220990Y-58570980D01*
X179078980Y-58570980D01*
X179078980Y-60582990D01*
G37*
X179078980Y-60582990D02*
X180220990Y-60582990D01*
X180220990Y-58570980D01*
X179078980Y-58570980D01*
X179078980Y-60582990D01*
%TO.C,J203*%
G36*
X125082990Y-92261020D02*
G01*
X125082990Y-91119010D01*
X123070980Y-91119010D01*
X123070980Y-92261020D01*
X125082990Y-92261020D01*
G37*
X125082990Y-92261020D02*
X125082990Y-91119010D01*
X123070980Y-91119010D01*
X123070980Y-92261020D01*
X125082990Y-92261020D01*
G36*
X125082990Y-94801017D02*
G01*
X125082990Y-93659010D01*
X123070980Y-93659010D01*
X123070980Y-94801017D01*
X125082990Y-94801017D01*
G37*
X125082990Y-94801017D02*
X125082990Y-93659010D01*
X123070980Y-93659010D01*
X123070980Y-94801017D01*
X125082990Y-94801017D01*
G36*
X125082990Y-97341020D02*
G01*
X125082990Y-96199008D01*
X123070980Y-96199008D01*
X123070980Y-97341020D01*
X125082990Y-97341020D01*
G37*
X125082990Y-97341020D02*
X125082990Y-96199008D01*
X123070980Y-96199008D01*
X123070980Y-97341020D01*
X125082990Y-97341020D01*
G36*
X125082990Y-99881020D02*
G01*
X125082990Y-98739010D01*
X123070980Y-98739010D01*
X123070980Y-99881020D01*
X125082990Y-99881020D01*
G37*
X125082990Y-99881020D02*
X125082990Y-98739010D01*
X123070980Y-98739010D01*
X123070980Y-99881020D01*
X125082990Y-99881020D01*
%TO.C,J202*%
G36*
X125082990Y-123861020D02*
G01*
X125082990Y-122719010D01*
X123070980Y-122719010D01*
X123070980Y-123861020D01*
X125082990Y-123861020D01*
G37*
X125082990Y-123861020D02*
X125082990Y-122719010D01*
X123070980Y-122719010D01*
X123070980Y-123861020D01*
X125082990Y-123861020D01*
G36*
X125082990Y-126401017D02*
G01*
X125082990Y-125259010D01*
X123070980Y-125259010D01*
X123070980Y-126401017D01*
X125082990Y-126401017D01*
G37*
X125082990Y-126401017D02*
X125082990Y-125259010D01*
X123070980Y-125259010D01*
X123070980Y-126401017D01*
X125082990Y-126401017D01*
G36*
X125082990Y-128941020D02*
G01*
X125082990Y-127799008D01*
X123070980Y-127799008D01*
X123070980Y-128941020D01*
X125082990Y-128941020D01*
G37*
X125082990Y-128941020D02*
X125082990Y-127799008D01*
X123070980Y-127799008D01*
X123070980Y-128941020D01*
X125082990Y-128941020D01*
G36*
X125082990Y-131481020D02*
G01*
X125082990Y-130339010D01*
X123070980Y-130339010D01*
X123070980Y-131481020D01*
X125082990Y-131481020D01*
G37*
X125082990Y-131481020D02*
X125082990Y-130339010D01*
X123070980Y-130339010D01*
X123070980Y-131481020D01*
X125082990Y-131481020D01*
%TD*%
D11*
%TO.C,REF\u002A\u002A*%
X159250000Y-45250000D03*
X160000000Y-45250000D03*
X160750000Y-45250000D03*
%TD*%
D12*
%TO.C,VC503*%
X176100000Y-124400000D03*
X160000000Y-117300000D03*
X143900000Y-124400000D03*
D13*
G36*
X147998604Y-131599990D02*
G01*
X147996870Y-131599881D01*
X147995115Y-131599881D01*
X147595025Y-131580313D01*
X147593631Y-131580234D01*
X147589487Y-131579770D01*
X147585302Y-131579359D01*
X147189033Y-131520843D01*
X147189030Y-131520843D01*
X147189026Y-131520842D01*
X147187651Y-131520629D01*
X147183571Y-131519762D01*
X147179447Y-131518946D01*
X146790793Y-131422043D01*
X146790778Y-131422040D01*
X146790762Y-131422035D01*
X146789425Y-131421692D01*
X146785458Y-131420434D01*
X146781425Y-131419216D01*
X146404072Y-131284847D01*
X146404065Y-131284845D01*
X146404057Y-131284842D01*
X146402754Y-131284367D01*
X146398928Y-131282727D01*
X146395033Y-131281122D01*
X146032589Y-131110568D01*
X146031330Y-131109964D01*
X146027679Y-131107957D01*
X146023963Y-131105981D01*
X145679899Y-130900878D01*
X145679890Y-130900873D01*
X145679880Y-130900866D01*
X145678697Y-130900150D01*
X145675244Y-130897786D01*
X145671753Y-130895466D01*
X145349338Y-130657762D01*
X145348221Y-130656925D01*
X145345038Y-130654255D01*
X145341767Y-130651587D01*
X145044087Y-130383554D01*
X145043056Y-130382613D01*
X145040116Y-130379611D01*
X145037154Y-130376670D01*
X144767061Y-130080879D01*
X144767050Y-130080868D01*
X144767039Y-130080854D01*
X144766117Y-130079831D01*
X144763487Y-130076561D01*
X144760823Y-130073340D01*
X144520882Y-129752606D01*
X144520872Y-129752593D01*
X144520861Y-129752577D01*
X144520045Y-129751470D01*
X144517758Y-129747975D01*
X144515410Y-129744494D01*
X144307914Y-129401877D01*
X144307904Y-129401862D01*
X144307894Y-129401844D01*
X144307190Y-129400663D01*
X144305257Y-129396966D01*
X144303258Y-129393268D01*
X144130182Y-129032030D01*
X144130177Y-129032022D01*
X144130173Y-129032011D01*
X144129584Y-129030759D01*
X144128023Y-129026897D01*
X144126392Y-129023016D01*
X143989396Y-128646623D01*
X143989389Y-128646605D01*
X143989382Y-128646583D01*
X143988922Y-128645290D01*
X143987749Y-128641306D01*
X143986501Y-128637272D01*
X143886888Y-128249307D01*
X143886882Y-128249288D01*
X143886877Y-128249265D01*
X143886545Y-128247933D01*
X143885766Y-128243851D01*
X143884918Y-128239718D01*
X143823637Y-127843866D01*
X143823434Y-127842485D01*
X143823058Y-127838351D01*
X143822616Y-127834149D01*
X143800256Y-127434205D01*
X143800188Y-127432810D01*
X143800201Y-127430889D01*
X143800101Y-127428972D01*
X143800001Y-127400350D01*
X143800002Y-127400043D01*
X143800000Y-127400000D01*
X143800000Y-121400000D01*
X143800010Y-121398604D01*
X143800119Y-121396870D01*
X143800119Y-121395115D01*
X143819687Y-120995025D01*
X143819766Y-120993631D01*
X143820230Y-120989487D01*
X143820641Y-120985302D01*
X143879154Y-120589051D01*
X143879156Y-120589031D01*
X143879161Y-120589008D01*
X143879371Y-120587651D01*
X143880233Y-120583595D01*
X143881054Y-120579447D01*
X143977960Y-120190778D01*
X143978308Y-120189426D01*
X143979560Y-120185479D01*
X143980784Y-120181425D01*
X144115155Y-119804066D01*
X144115633Y-119802754D01*
X144117281Y-119798907D01*
X144118879Y-119795032D01*
X144289432Y-119432589D01*
X144290036Y-119431330D01*
X144292050Y-119427666D01*
X144294019Y-119423963D01*
X144499122Y-119079899D01*
X144499127Y-119079890D01*
X144499134Y-119079880D01*
X144499850Y-119078697D01*
X144502214Y-119075244D01*
X144504534Y-119071753D01*
X144742229Y-118749352D01*
X144742238Y-118749338D01*
X144742250Y-118749323D01*
X144743075Y-118748220D01*
X144745747Y-118745036D01*
X144748413Y-118741767D01*
X145016445Y-118444087D01*
X145017387Y-118443056D01*
X145020374Y-118440131D01*
X145023330Y-118437154D01*
X145319132Y-118167050D01*
X145320169Y-118166116D01*
X145323443Y-118163483D01*
X145326659Y-118160823D01*
X145647394Y-117920882D01*
X145647407Y-117920872D01*
X145647423Y-117920861D01*
X145648530Y-117920045D01*
X145652030Y-117917754D01*
X145655507Y-117915409D01*
X145998123Y-117707914D01*
X145998138Y-117707904D01*
X145998156Y-117707894D01*
X145999338Y-117707190D01*
X146003017Y-117705266D01*
X146006732Y-117703258D01*
X146367970Y-117530182D01*
X146367978Y-117530177D01*
X146367989Y-117530173D01*
X146369241Y-117529584D01*
X146373103Y-117528023D01*
X146376984Y-117526392D01*
X146753395Y-117389390D01*
X146754710Y-117388922D01*
X146758722Y-117387741D01*
X146762728Y-117386501D01*
X147150699Y-117286886D01*
X147150713Y-117286882D01*
X147150730Y-117286879D01*
X147152066Y-117286545D01*
X147156170Y-117285762D01*
X147160283Y-117284918D01*
X147556134Y-117223637D01*
X147557516Y-117223433D01*
X147561706Y-117223051D01*
X147565850Y-117222616D01*
X147965795Y-117200256D01*
X147967189Y-117200188D01*
X147969112Y-117200201D01*
X147971028Y-117200101D01*
X147999651Y-117200001D01*
X147999957Y-117200002D01*
X148000000Y-117200000D01*
X172000000Y-117200000D01*
X172001396Y-117200010D01*
X172003130Y-117200119D01*
X172004885Y-117200119D01*
X172404975Y-117219687D01*
X172406369Y-117219766D01*
X172410513Y-117220230D01*
X172414698Y-117220641D01*
X172810949Y-117279154D01*
X172810969Y-117279156D01*
X172810992Y-117279161D01*
X172812349Y-117279371D01*
X172816405Y-117280233D01*
X172820553Y-117281054D01*
X173209222Y-117377960D01*
X173210574Y-117378308D01*
X173214521Y-117379560D01*
X173218575Y-117380784D01*
X173595928Y-117515153D01*
X173595935Y-117515155D01*
X173595943Y-117515158D01*
X173597246Y-117515633D01*
X173601093Y-117517281D01*
X173604968Y-117518879D01*
X173967411Y-117689432D01*
X173968670Y-117690036D01*
X173972334Y-117692050D01*
X173976037Y-117694019D01*
X174320101Y-117899122D01*
X174320110Y-117899127D01*
X174320120Y-117899134D01*
X174321303Y-117899850D01*
X174324756Y-117902214D01*
X174328247Y-117904534D01*
X174650648Y-118142229D01*
X174650662Y-118142238D01*
X174650677Y-118142250D01*
X174651780Y-118143075D01*
X174654964Y-118145747D01*
X174658233Y-118148413D01*
X174955913Y-118416445D01*
X174956944Y-118417387D01*
X174959869Y-118420374D01*
X174962846Y-118423330D01*
X175232950Y-118719132D01*
X175233884Y-118720169D01*
X175236517Y-118723443D01*
X175239177Y-118726659D01*
X175479118Y-119047394D01*
X175479128Y-119047407D01*
X175479139Y-119047423D01*
X175479955Y-119048530D01*
X175482246Y-119052030D01*
X175484591Y-119055507D01*
X175692086Y-119398123D01*
X175692096Y-119398138D01*
X175692106Y-119398156D01*
X175692810Y-119399338D01*
X175694734Y-119403017D01*
X175696742Y-119406732D01*
X175869822Y-119767977D01*
X175869823Y-119767978D01*
X175869827Y-119767989D01*
X175870416Y-119769241D01*
X175871977Y-119773103D01*
X175873608Y-119776984D01*
X176010610Y-120153395D01*
X176011078Y-120154710D01*
X176012259Y-120158722D01*
X176013499Y-120162728D01*
X176113114Y-120550699D01*
X176113118Y-120550713D01*
X176113121Y-120550730D01*
X176113455Y-120552066D01*
X176114238Y-120556170D01*
X176115082Y-120560283D01*
X176176363Y-120956134D01*
X176176567Y-120957516D01*
X176176949Y-120961706D01*
X176177384Y-120965850D01*
X176199744Y-121365795D01*
X176199812Y-121367189D01*
X176199799Y-121369112D01*
X176199899Y-121371028D01*
X176199999Y-121399651D01*
X176199994Y-121401047D01*
X176199415Y-121410800D01*
X176197887Y-121420449D01*
X176195424Y-121429904D01*
X176192051Y-121439073D01*
X176187799Y-121447869D01*
X176186512Y-121449977D01*
X176013506Y-121449977D01*
X176011870Y-121447255D01*
X176007679Y-121438430D01*
X176004370Y-121429237D01*
X176001972Y-121419766D01*
X176000512Y-121410106D01*
X176000001Y-121400349D01*
X175999910Y-121374351D01*
X175977969Y-120981901D01*
X175918183Y-120595708D01*
X175820999Y-120217204D01*
X175687343Y-119849986D01*
X175518488Y-119497559D01*
X175316051Y-119163294D01*
X175081964Y-118850384D01*
X174818459Y-118561808D01*
X174528043Y-118300316D01*
X174213494Y-118068411D01*
X173877834Y-117868317D01*
X173524235Y-117701926D01*
X173156094Y-117570837D01*
X172776915Y-117476297D01*
X172390327Y-117419210D01*
X171997548Y-117400000D01*
X148000063Y-117400000D01*
X147974351Y-117400090D01*
X147581901Y-117422031D01*
X147195708Y-117481817D01*
X146817204Y-117579001D01*
X146449986Y-117712657D01*
X146097559Y-117881512D01*
X145763293Y-118083950D01*
X145450384Y-118318036D01*
X145161808Y-118581541D01*
X144900316Y-118871957D01*
X144668411Y-119186506D01*
X144468317Y-119522166D01*
X144301926Y-119875765D01*
X144170837Y-120243906D01*
X144076297Y-120623085D01*
X144019210Y-121009673D01*
X144000000Y-121402452D01*
X144000000Y-127400000D01*
X144000090Y-127425648D01*
X144022031Y-127818100D01*
X144081817Y-128204292D01*
X144179001Y-128582796D01*
X144312657Y-128950014D01*
X144481510Y-129302438D01*
X144683946Y-129636701D01*
X144918036Y-129949615D01*
X145181547Y-130238197D01*
X145471963Y-130499689D01*
X145786499Y-130731585D01*
X146122171Y-130931685D01*
X146475765Y-131098074D01*
X146843906Y-131229163D01*
X147223092Y-131323704D01*
X147609673Y-131380790D01*
X148002452Y-131400000D01*
X171999937Y-131400000D01*
X172025648Y-131399910D01*
X172418100Y-131377969D01*
X172804292Y-131318183D01*
X173182796Y-131220999D01*
X173550014Y-131087343D01*
X173902438Y-130918490D01*
X174236701Y-130716054D01*
X174549615Y-130481964D01*
X174838197Y-130218453D01*
X175099689Y-129928037D01*
X175331585Y-129613501D01*
X175531685Y-129277829D01*
X175698074Y-128924235D01*
X175829163Y-128556094D01*
X175923704Y-128176908D01*
X175980790Y-127790327D01*
X176000000Y-127397548D01*
X176000000Y-121500000D01*
X176000010Y-121498604D01*
X176000623Y-121488853D01*
X176002185Y-121479209D01*
X176004681Y-121469763D01*
X176008086Y-121460606D01*
X176012369Y-121451825D01*
X176013506Y-121449977D01*
X176186512Y-121449977D01*
X176186486Y-121450019D01*
X176188295Y-121453053D01*
X176192455Y-121461893D01*
X176195732Y-121471097D01*
X176198096Y-121480577D01*
X176199523Y-121490242D01*
X176200000Y-121500000D01*
X176200000Y-127400000D01*
X176199990Y-127401396D01*
X176199881Y-127403130D01*
X176199881Y-127404885D01*
X176180313Y-127804975D01*
X176180234Y-127806369D01*
X176179770Y-127810513D01*
X176179359Y-127814698D01*
X176120843Y-128210969D01*
X176120629Y-128212349D01*
X176119762Y-128216429D01*
X176118946Y-128220553D01*
X176022043Y-128609207D01*
X176022040Y-128609222D01*
X176022035Y-128609238D01*
X176021692Y-128610575D01*
X176020434Y-128614542D01*
X176019216Y-128618575D01*
X175884845Y-128995934D01*
X175884367Y-128997246D01*
X175882727Y-129001072D01*
X175881122Y-129004967D01*
X175710568Y-129367411D01*
X175709964Y-129368670D01*
X175707957Y-129372321D01*
X175705981Y-129376037D01*
X175500878Y-129720101D01*
X175500873Y-129720110D01*
X175500866Y-129720120D01*
X175500150Y-129721303D01*
X175497786Y-129724756D01*
X175495466Y-129728247D01*
X175257762Y-130050662D01*
X175256925Y-130051779D01*
X175254255Y-130054962D01*
X175251587Y-130058233D01*
X174983554Y-130355913D01*
X174982613Y-130356944D01*
X174979611Y-130359884D01*
X174976670Y-130362846D01*
X174680879Y-130632939D01*
X174680868Y-130632950D01*
X174680854Y-130632961D01*
X174679831Y-130633883D01*
X174676561Y-130636513D01*
X174673340Y-130639177D01*
X174352606Y-130879118D01*
X174352593Y-130879128D01*
X174352577Y-130879139D01*
X174351470Y-130879955D01*
X174347975Y-130882242D01*
X174344494Y-130884590D01*
X174001877Y-131092086D01*
X174001862Y-131092096D01*
X174001844Y-131092106D01*
X174000663Y-131092810D01*
X173996966Y-131094743D01*
X173993268Y-131096742D01*
X173632030Y-131269818D01*
X173632022Y-131269823D01*
X173632011Y-131269827D01*
X173630759Y-131270416D01*
X173626897Y-131271977D01*
X173623016Y-131273608D01*
X173246623Y-131410604D01*
X173246605Y-131410611D01*
X173246583Y-131410618D01*
X173245290Y-131411078D01*
X173241306Y-131412251D01*
X173237272Y-131413499D01*
X172849307Y-131513112D01*
X172849288Y-131513118D01*
X172849265Y-131513123D01*
X172847933Y-131513455D01*
X172843851Y-131514234D01*
X172839718Y-131515082D01*
X172443866Y-131576363D01*
X172442485Y-131576566D01*
X172438351Y-131576942D01*
X172434149Y-131577384D01*
X172034205Y-131599744D01*
X172032810Y-131599812D01*
X172030889Y-131599799D01*
X172028972Y-131599899D01*
X172000350Y-131599999D01*
X172000043Y-131599998D01*
X172000000Y-131600000D01*
X148000000Y-131600000D01*
X147998604Y-131599990D01*
G37*
%TD*%
D14*
%TO.C,SW502*%
X122543503Y-107656497D03*
D15*
X119856497Y-110343503D03*
%TD*%
D16*
%TO.C,RV503*%
X189700000Y-111000000D03*
X200700000Y-118000000D03*
X189700000Y-109000000D03*
X189700000Y-107000000D03*
X198700000Y-118000000D03*
X196700000Y-118000000D03*
D17*
X192700000Y-115000000D03*
X204700000Y-103000000D03*
%TD*%
D13*
%TO.C,VC501*%
G36*
X137919972Y-91899221D02*
G01*
X137928132Y-91893769D01*
X137934323Y-91890460D01*
X138102757Y-91722026D01*
X138510873Y-91370814D01*
X138944096Y-91051080D01*
X139400000Y-90764617D01*
X139876037Y-90513024D01*
X140369545Y-90297709D01*
X140877763Y-90119876D01*
X141397850Y-89980519D01*
X141926896Y-89880418D01*
X142461944Y-89820133D01*
X143000000Y-89800000D01*
X143538057Y-89820133D01*
X144073105Y-89880418D01*
X144602151Y-89980519D01*
X145122238Y-90119876D01*
X145630455Y-90297709D01*
X146123963Y-90513024D01*
X146600000Y-90764617D01*
X147055905Y-91051080D01*
X147489127Y-91370814D01*
X147897244Y-91722026D01*
X148277974Y-92102757D01*
X148629187Y-92510873D01*
X148948920Y-92944096D01*
X149235383Y-93400000D01*
X149486976Y-93876037D01*
X149702291Y-94369545D01*
X149880124Y-94877763D01*
X150019481Y-95397850D01*
X150119582Y-95926896D01*
X150179867Y-96461944D01*
X150200000Y-97000000D01*
X150179867Y-97538057D01*
X150119582Y-98073105D01*
X150019481Y-98602151D01*
X149880124Y-99122238D01*
X149702291Y-99630455D01*
X149486976Y-100123963D01*
X149235383Y-100600000D01*
X148948920Y-101055905D01*
X148629187Y-101489127D01*
X148277974Y-101897244D01*
X147897244Y-102277974D01*
X147489127Y-102629187D01*
X147055905Y-102948920D01*
X146600000Y-103235383D01*
X146123963Y-103486976D01*
X145630455Y-103702291D01*
X145122238Y-103880124D01*
X144602151Y-104019481D01*
X144073105Y-104119582D01*
X143538057Y-104179867D01*
X143000000Y-104200000D01*
X142461944Y-104179867D01*
X141926896Y-104119582D01*
X141397850Y-104019481D01*
X140877763Y-103880124D01*
X140369545Y-103702291D01*
X139876037Y-103486976D01*
X139400000Y-103235383D01*
X138944096Y-102948920D01*
X138510873Y-102629187D01*
X138102757Y-102277974D01*
X137727315Y-101902532D01*
X137868637Y-101761210D01*
X138238791Y-102131363D01*
X138635572Y-102472820D01*
X139056760Y-102783671D01*
X139500000Y-103062178D01*
X139962814Y-103306782D01*
X140442613Y-103516116D01*
X140936713Y-103689010D01*
X141442354Y-103824496D01*
X141956704Y-103921815D01*
X142476890Y-103980427D01*
X143000000Y-103999999D01*
X143523111Y-103980427D01*
X144043296Y-103921815D01*
X144557646Y-103824496D01*
X145063287Y-103689010D01*
X145557388Y-103516116D01*
X146037186Y-103306782D01*
X146500001Y-103062178D01*
X146943241Y-102783671D01*
X147364429Y-102472820D01*
X147761210Y-102131363D01*
X148131363Y-101761210D01*
X148472820Y-101364429D01*
X148783671Y-100943241D01*
X149062178Y-100500001D01*
X149306782Y-100037186D01*
X149516116Y-99557388D01*
X149689010Y-99063287D01*
X149824496Y-98557646D01*
X149921815Y-98043296D01*
X149980427Y-97523111D01*
X149999999Y-97000000D01*
X149980427Y-96476890D01*
X149921815Y-95956704D01*
X149824496Y-95442354D01*
X149689010Y-94936713D01*
X149516116Y-94442613D01*
X149306782Y-93962814D01*
X149062178Y-93500000D01*
X148783671Y-93056760D01*
X148472820Y-92635572D01*
X148131363Y-92238791D01*
X147761210Y-91868637D01*
X147364429Y-91527180D01*
X146943241Y-91216329D01*
X146500001Y-90937822D01*
X146037186Y-90693219D01*
X145557388Y-90483884D01*
X145063287Y-90310991D01*
X144557646Y-90175505D01*
X144043296Y-90078185D01*
X143523111Y-90019574D01*
X143000000Y-90000001D01*
X142476890Y-90019574D01*
X141956704Y-90078185D01*
X141442354Y-90175505D01*
X140936713Y-90310991D01*
X140442613Y-90483884D01*
X139962814Y-90693219D01*
X139500000Y-90937822D01*
X139056760Y-91216329D01*
X138635572Y-91527180D01*
X138238791Y-91868637D01*
X137868637Y-92238791D01*
X137527180Y-92635572D01*
X137216329Y-93056760D01*
X136937822Y-93500000D01*
X136693219Y-93962814D01*
X136483884Y-94442613D01*
X136310991Y-94936713D01*
X136175505Y-95442354D01*
X136078185Y-95956704D01*
X136019574Y-96476890D01*
X136000001Y-97000000D01*
X136019574Y-97523111D01*
X136078185Y-98043296D01*
X136175505Y-98557646D01*
X136310991Y-99063287D01*
X136483884Y-99557388D01*
X136693219Y-100037186D01*
X136937822Y-100500001D01*
X137216329Y-100943241D01*
X137527180Y-101364429D01*
X137868637Y-101761210D01*
X137727315Y-101902532D01*
X137722026Y-101897244D01*
X137370814Y-101489127D01*
X137051080Y-101055905D01*
X136764617Y-100600000D01*
X136513024Y-100123963D01*
X136297709Y-99630455D01*
X136119876Y-99122238D01*
X135980519Y-98602151D01*
X135880418Y-98073105D01*
X135820133Y-97538057D01*
X135800000Y-97000000D01*
X135820133Y-96461944D01*
X135880418Y-95926896D01*
X135980519Y-95397850D01*
X136119876Y-94877763D01*
X136297709Y-94369545D01*
X136513024Y-93876037D01*
X136764617Y-93400000D01*
X137051080Y-92944096D01*
X137370814Y-92510873D01*
X137722026Y-92102757D01*
X137890460Y-91934323D01*
X137893769Y-91928132D01*
X137899221Y-91919972D01*
X137905446Y-91912386D01*
X137912386Y-91905446D01*
X137919972Y-91899221D01*
G37*
%TD*%
%TO.C,VC502*%
G36*
X171919972Y-91899221D02*
G01*
X171928132Y-91893769D01*
X171934323Y-91890460D01*
X172102757Y-91722026D01*
X172510873Y-91370814D01*
X172944096Y-91051080D01*
X173400000Y-90764617D01*
X173876037Y-90513024D01*
X174369545Y-90297709D01*
X174877763Y-90119876D01*
X175397850Y-89980519D01*
X175926896Y-89880418D01*
X176461944Y-89820133D01*
X177000000Y-89800000D01*
X177538057Y-89820133D01*
X178073105Y-89880418D01*
X178602151Y-89980519D01*
X179122238Y-90119876D01*
X179630455Y-90297709D01*
X180123963Y-90513024D01*
X180600000Y-90764617D01*
X181055905Y-91051080D01*
X181489127Y-91370814D01*
X181897244Y-91722026D01*
X182277974Y-92102757D01*
X182629187Y-92510873D01*
X182948920Y-92944096D01*
X183235383Y-93400000D01*
X183486976Y-93876037D01*
X183702291Y-94369545D01*
X183880124Y-94877763D01*
X184019481Y-95397850D01*
X184119582Y-95926896D01*
X184179867Y-96461944D01*
X184200000Y-97000000D01*
X184179867Y-97538057D01*
X184119582Y-98073105D01*
X184019481Y-98602151D01*
X183880124Y-99122238D01*
X183702291Y-99630455D01*
X183486976Y-100123963D01*
X183235383Y-100600000D01*
X182948920Y-101055905D01*
X182629187Y-101489127D01*
X182277974Y-101897244D01*
X181897244Y-102277974D01*
X181489127Y-102629187D01*
X181055905Y-102948920D01*
X180600000Y-103235383D01*
X180123963Y-103486976D01*
X179630455Y-103702291D01*
X179122238Y-103880124D01*
X178602151Y-104019481D01*
X178073105Y-104119582D01*
X177538057Y-104179867D01*
X177000000Y-104200000D01*
X176461944Y-104179867D01*
X175926896Y-104119582D01*
X175397850Y-104019481D01*
X174877763Y-103880124D01*
X174369545Y-103702291D01*
X173876037Y-103486976D01*
X173400000Y-103235383D01*
X172944096Y-102948920D01*
X172510873Y-102629187D01*
X172102757Y-102277974D01*
X171727315Y-101902532D01*
X171868637Y-101761210D01*
X172238791Y-102131363D01*
X172635572Y-102472820D01*
X173056760Y-102783671D01*
X173500000Y-103062178D01*
X173962814Y-103306782D01*
X174442613Y-103516116D01*
X174936713Y-103689010D01*
X175442354Y-103824496D01*
X175956704Y-103921815D01*
X176476890Y-103980427D01*
X177000000Y-103999999D01*
X177523111Y-103980427D01*
X178043296Y-103921815D01*
X178557646Y-103824496D01*
X179063287Y-103689010D01*
X179557388Y-103516116D01*
X180037186Y-103306782D01*
X180500001Y-103062178D01*
X180943241Y-102783671D01*
X181364429Y-102472820D01*
X181761210Y-102131363D01*
X182131363Y-101761210D01*
X182472820Y-101364429D01*
X182783671Y-100943241D01*
X183062178Y-100500001D01*
X183306782Y-100037186D01*
X183516116Y-99557388D01*
X183689010Y-99063287D01*
X183824496Y-98557646D01*
X183921815Y-98043296D01*
X183980427Y-97523111D01*
X183999999Y-97000000D01*
X183980427Y-96476890D01*
X183921815Y-95956704D01*
X183824496Y-95442354D01*
X183689010Y-94936713D01*
X183516116Y-94442613D01*
X183306782Y-93962814D01*
X183062178Y-93500000D01*
X182783671Y-93056760D01*
X182472820Y-92635572D01*
X182131363Y-92238791D01*
X181761210Y-91868637D01*
X181364429Y-91527180D01*
X180943241Y-91216329D01*
X180500001Y-90937822D01*
X180037186Y-90693219D01*
X179557388Y-90483884D01*
X179063287Y-90310991D01*
X178557646Y-90175505D01*
X178043296Y-90078185D01*
X177523111Y-90019574D01*
X177000000Y-90000001D01*
X176476890Y-90019574D01*
X175956704Y-90078185D01*
X175442354Y-90175505D01*
X174936713Y-90310991D01*
X174442613Y-90483884D01*
X173962814Y-90693219D01*
X173500000Y-90937822D01*
X173056760Y-91216329D01*
X172635572Y-91527180D01*
X172238791Y-91868637D01*
X171868637Y-92238791D01*
X171527180Y-92635572D01*
X171216329Y-93056760D01*
X170937822Y-93500000D01*
X170693219Y-93962814D01*
X170483884Y-94442613D01*
X170310991Y-94936713D01*
X170175505Y-95442354D01*
X170078185Y-95956704D01*
X170019574Y-96476890D01*
X170000001Y-97000000D01*
X170019574Y-97523111D01*
X170078185Y-98043296D01*
X170175505Y-98557646D01*
X170310991Y-99063287D01*
X170483884Y-99557388D01*
X170693219Y-100037186D01*
X170937822Y-100500001D01*
X171216329Y-100943241D01*
X171527180Y-101364429D01*
X171868637Y-101761210D01*
X171727315Y-101902532D01*
X171722026Y-101897244D01*
X171370814Y-101489127D01*
X171051080Y-101055905D01*
X170764617Y-100600000D01*
X170513024Y-100123963D01*
X170297709Y-99630455D01*
X170119876Y-99122238D01*
X169980519Y-98602151D01*
X169880418Y-98073105D01*
X169820133Y-97538057D01*
X169800000Y-97000000D01*
X169820133Y-96461944D01*
X169880418Y-95926896D01*
X169980519Y-95397850D01*
X170119876Y-94877763D01*
X170297709Y-94369545D01*
X170513024Y-93876037D01*
X170764617Y-93400000D01*
X171051080Y-92944096D01*
X171370814Y-92510873D01*
X171722026Y-92102757D01*
X171890460Y-91934323D01*
X171893769Y-91928132D01*
X171899221Y-91919972D01*
X171905446Y-91912386D01*
X171912386Y-91905446D01*
X171919972Y-91899221D01*
G37*
%TD*%
D18*
%TO.C,J103*%
X156190000Y-48500000D03*
D16*
X158730000Y-48500000D03*
X161270000Y-48500000D03*
X163810000Y-48500000D03*
%TD*%
%TO.C,J206*%
X168890000Y-133000000D03*
X163810000Y-133000000D03*
X171430000Y-133000000D03*
X166350000Y-133000000D03*
X176510000Y-133000000D03*
X173970000Y-133000000D03*
X161270000Y-133000000D03*
X158730000Y-133000000D03*
X156190000Y-133000000D03*
X153650000Y-133000000D03*
X151110000Y-133000000D03*
X148570000Y-133000000D03*
X146030000Y-133000000D03*
D18*
X143490000Y-133000000D03*
%TD*%
D11*
%TO.C,REF\u002A\u002A*%
X110450000Y-59700000D03*
X111200000Y-59700000D03*
X111950000Y-59700000D03*
%TD*%
%TO.C,REF\u002A\u002A*%
X110500000Y-45250000D03*
X111250000Y-45250000D03*
X112000000Y-45250000D03*
%TD*%
%TO.C,REF\u002A\u002A*%
X128500000Y-45250000D03*
X129250000Y-45250000D03*
X130000000Y-45250000D03*
%TD*%
%TO.C,REF\u002A\u002A*%
X208000000Y-59750000D03*
X208750000Y-59750000D03*
X209500000Y-59750000D03*
%TD*%
%TO.C,REF\u002A\u002A*%
X190000000Y-45250000D03*
X190750000Y-45250000D03*
X191500000Y-45250000D03*
%TD*%
%TO.C,REF\u002A\u002A*%
X208000000Y-45250000D03*
X208750000Y-45250000D03*
X209500000Y-45250000D03*
%TD*%
D19*
%TO.C,J303*%
X113800000Y-62200000D03*
X113800000Y-65700000D03*
X113800000Y-69200000D03*
X113800000Y-72700000D03*
X113800000Y-76200000D03*
%TD*%
D20*
%TO.C,C303*%
X192750000Y-73750000D03*
D21*
X197750000Y-73750000D03*
%TD*%
D22*
%TO.C,J201*%
X174475000Y-48450000D03*
X167325000Y-48450000D03*
%TD*%
%TO.C,J101*%
X152675000Y-48450000D03*
X145525000Y-48450000D03*
%TD*%
D23*
%TO.C,RV501*%
X203000000Y-131400000D03*
X203000000Y-121400000D03*
D24*
X193000000Y-128400000D03*
X193000000Y-124400000D03*
X193000000Y-130400000D03*
X193000000Y-126400000D03*
X193000000Y-122400000D03*
%TD*%
D23*
%TO.C,RV502*%
X203000000Y-96600000D03*
X203000000Y-86600000D03*
D24*
X193000000Y-93600000D03*
X193000000Y-89600000D03*
X193000000Y-95600000D03*
X193000000Y-91600000D03*
X193000000Y-87600000D03*
%TD*%
D25*
%TO.C,H104*%
X184600000Y-132100000D03*
%TD*%
%TO.C,H103*%
X135400000Y-132100000D03*
%TD*%
%TO.C,H102*%
X184600000Y-48400000D03*
%TD*%
%TO.C,H101*%
X135400000Y-48400000D03*
%TD*%
D26*
%TO.C,SW501*%
X121800000Y-93600000D03*
D27*
X126300000Y-93600000D03*
%TD*%
D20*
%TO.C,C304*%
X127250000Y-73750000D03*
D21*
X122250000Y-73750000D03*
%TD*%
D19*
%TO.C,J304*%
X206200000Y-76200000D03*
X206200000Y-72700000D03*
X206200000Y-69200000D03*
X206200000Y-65700000D03*
X206200000Y-62200000D03*
%TD*%
%TO.C,J302*%
X199850000Y-63800000D03*
X196350000Y-63800000D03*
%TD*%
%TO.C,J301*%
X123650000Y-63800000D03*
X120150000Y-63800000D03*
%TD*%
M02*
